<?xml version="1.0" standalone="no"?>
<!DOCTYPE svg PUBLIC "-//W3C//DTD SVG 20010904//EN"
 "http://www.w3.org/TR/2001/REC-SVG-20010904/DTD/svg10.dtd">
<svg version="1.0" xmlns="http://www.w3.org/2000/svg"
 width="300.000000pt" height="300.000000pt" viewBox="0 0 300.000000 300.000000"
 preserveAspectRatio="xMidYMid meet">
<metadata>
Created by potrace 1.11, written by Peter Selinger 2001-2013
</metadata>
<g transform="translate(0.000000,300.000000) scale(0.100000,-0.100000)"
fill="#000000" stroke="none">
<path d="M1100 2790 c-59 -7 -69 -14 -91 -64 -20 -46 -19 -69 11 -161 11 -33
22 -76 25 -95 3 -19 8 -46 10 -60 l6 -25 -90 0 c-85 0 -91 -1 -120 -29 -17
-16 -38 -50 -48 -75 -9 -25 -17 -47 -18 -48 -1 -2 -19 6 -41 16 -61 29 -140
44 -203 38 -55 -4 -109 -28 -211 -92 -109 -70 -180 -191 -180 -309 0 -29 -6
-60 -14 -71 -22 -32 -14 -126 14 -166 87 -124 238 -221 343 -220 9 0 17 -2 17
-4 0 -2 -23 -27 -51 -57 -92 -97 -225 -294 -284 -424 -48 -104 -73 -196 -89
-324 -11 -82 -15 -93 -48 -120 -28 -24 -32 -33 -32 -74 1 -48 15 -69 41 -59 8
3 13 -2 13 -16 0 -16 6 -21 25 -21 16 0 25 -6 25 -16 0 -17 1 -17 115 1 78 12
172 22 191 21 12 -1 36 -18 53 -38 69 -79 185 -116 256 -82 20 9 50 34 67 55
20 25 40 39 54 39 22 0 64 45 64 69 0 6 6 11 13 12 6 0 21 2 32 4 25 5 112 13
235 20 52 4 115 8 140 10 231 20 673 27 804 12 151 -17 150 -17 181 -54 17
-20 45 -43 62 -52 17 -9 52 -29 78 -45 58 -36 115 -38 179 -5 55 27 117 89
146 147 12 23 27 42 34 43 21 0 101 10 133 15 35 5 50 25 47 62 -1 12 -2 36
-3 52 -1 23 -6 30 -21 30 -19 0 -20 2 -5 29 23 46 25 111 2 151 -27 49 -185
215 -272 286 -97 79 -335 184 -505 224 -71 16 -90 27 -90 48 0 10 -20 51 -44
92 -24 41 -42 77 -40 79 2 2 36 -3 76 -12 121 -26 183 -33 261 -31 148 4 246
53 330 165 27 35 55 72 64 83 35 43 85 207 78 256 -1 8 -6 46 -10 85 -4 38
-11 80 -17 95 -5 14 -12 34 -14 45 -16 78 -124 128 -280 129 l-62 1 14 35 c17
45 54 193 54 217 0 20 -57 54 -125 74 -22 6 -69 25 -105 41 -35 16 -78 31 -95
33 -62 10 -184 17 -315 20 -74 2 -205 7 -290 11 -140 7 -197 8 -340 5 -25 0
-56 1 -70 2 -14 1 -45 0 -70 -3z"/>
</g>
</svg>
